<?xml version="1.0" encoding="utf-8"?>
<COLLADA xmlns="http://www.collada.org/2005/11/COLLADASchema" version="1.4.1" xmlns:xsi="http://www.w3.org/2001/XMLSchema-instance">
  <asset>
    <contributor>
      <author>Blender User</author>
      <authoring_tool>Blender 3.0.1</authoring_tool>
    </contributor>
    <created>2025-12-17T15:12:40</created>
    <modified>2025-12-17T15:12:40</modified>
    <unit name="meter" meter="1"/>
    <up_axis>Z_UP</up_axis>
  </asset>
  <library_cameras>
    <camera id="Camera-camera" name="Camera">
      <optics>
        <technique_common>
          <perspective>
            <xfov sid="xfov">39.59775</xfov>
            <aspect_ratio>1.777778</aspect_ratio>
            <znear sid="znear">0.1</znear>
            <zfar sid="zfar">100</zfar>
          </perspective>
        </technique_common>
      </optics>
      <extra>
        <technique profile="blender">
          <shiftx sid="shiftx" type="float">0</shiftx>
          <shifty sid="shifty" type="float">0</shifty>
          <dof_distance sid="dof_distance" type="float">10</dof_distance>
        </technique>
      </extra>
    </camera>
  </library_cameras>
  <library_lights>
    <light id="Light-light" name="Light">
      <technique_common>
        <point>
          <color sid="color">1000 1000 1000</color>
          <constant_attenuation>1</constant_attenuation>
          <linear_attenuation>0</linear_attenuation>
          <quadratic_attenuation>0.00111109</quadratic_attenuation>
        </point>
      </technique_common>
      <extra>
        <technique profile="blender">
          <type sid="type" type="int">0</type>
          <flag sid="flag" type="int">0</flag>
          <mode sid="mode" type="int">1</mode>
          <gamma sid="blender_gamma" type="float">1</gamma>
          <red sid="red" type="float">1</red>
          <green sid="green" type="float">1</green>
          <blue sid="blue" type="float">1</blue>
          <shadow_r sid="blender_shadow_r" type="float">0</shadow_r>
          <shadow_g sid="blender_shadow_g" type="float">0</shadow_g>
          <shadow_b sid="blender_shadow_b" type="float">0</shadow_b>
          <energy sid="blender_energy" type="float">1000</energy>
          <dist sid="blender_dist" type="float">29.99998</dist>
          <spotsize sid="spotsize" type="float">75</spotsize>
          <spotblend sid="spotblend" type="float">0.15</spotblend>
          <att1 sid="att1" type="float">0</att1>
          <att2 sid="att2" type="float">1</att2>
          <falloff_type sid="falloff_type" type="int">2</falloff_type>
          <clipsta sid="clipsta" type="float">0.04999995</clipsta>
          <clipend sid="clipend" type="float">30.002</clipend>
          <bias sid="bias" type="float">1</bias>
          <soft sid="soft" type="float">3</soft>
          <bufsize sid="bufsize" type="int">2880</bufsize>
          <samp sid="samp" type="int">3</samp>
          <buffers sid="buffers" type="int">1</buffers>
          <area_shape sid="area_shape" type="int">1</area_shape>
          <area_size sid="area_size" type="float">0.1</area_size>
          <area_sizey sid="area_sizey" type="float">0.1</area_sizey>
          <area_sizez sid="area_sizez" type="float">1</area_sizez>
        </technique>
      </extra>
    </light>
  </library_lights>
  <library_images/>
  <library_geometries>
    <geometry id="world-mesh" name="world">
      <mesh>
        <source id="world-mesh-positions">
          <float_array id="world-mesh-positions-array" count="330">35000 5000 0 35000 5000 1000 35000 20000 0 35000 20000 6000 35000 0 6000 35000 3000 1000 35000 0 0 35000 3000 0 0 20000 1500 30000 20000 1500 0 20000 6000 30000 20000 0 31000 0 0 31000 0 1000 30000 0 1000 21000 0 6000 21000 0 0 30000 0 0 21000 15000 1500 20000 15000 1500 21000 15000 6000 20000 15000 6000 0 15000 1500 0 10000 1300 0 15000 1300 0 0 6000 0 0 0 0 10000 0 20000 0 0 20000 0 6000 20000 15000 0 21000 15000 0 -1000 21000 6000 -1000 -1000 6000 36000 -1000 6000 36000 21000 6000 4000 10000 0 4000 6000 0 11000 2000 0 13000 2000 0 13000 4000 0 15000 10000 0 10000 7000 0 10000 10000 0 15000 15000 0 7000 7000 0 7000 6000 0 11000 4000 0 26000 3000 0 24000 3000 0 24000 5000 0 24000 8000 0 26000 5000 0 27000 8000 0 30000 1000 0 30000 10000 0 33000 5000 0 27000 10000 0 24000 15000 0 31000 1000 0 33000 3000 0 15000 15000 1500 -1000 21000 -10 -1000 -1000 -10 36000 -1000 -10 36000 21000 -10 24000 13000 1500 24000 15000 1500 8000 18000 1500 10000 15000 1500 3000 17000 1500 2000 17000 1500 2000 18000 1500 27000 13000 1500 27000 15000 1500 30000 15000 1500 8000 19000 1500 7000 19000 1500 3000 18000 1500 7000 18000 1500 10000 7000 68.24292 7000 7000 68.24292 7000 6000 34.45685 4000 6000 34.45685 10000 10000 1297.525 7000 10000 1297.525 10000 14333.33 1300 10000 10000 1300 13000 4000 1000 11000 4000 1000 13000 2000 1000 11000 2000 1000 10000 15000 1300 3000 18000 3000 3000 17000 3000 2000 18000 3000 2000 17000 3000 8000 19000 3000 8000 18000 3000 7000 19000 3000 7000 18000 3000 4000 10000 1297.525 33000 3000 1000 33000 5000 1000 24000 5000 1000 24000 3000 1000 26000 5000 1000 26000 3000 1000 31000 1000 1000 30000 1000 1000</float_array>
          <technique_common>
            <accessor source="#world-mesh-positions-array" count="110" stride="3">
              <param name="X" type="float"/>
              <param name="Y" type="float"/>
              <param name="Z" type="float"/>
            </accessor>
          </technique_common>
        </source>
        <source id="world-mesh-normals">
          <float_array id="world-mesh-normals-array" count="45">-1 0 0 0 -1 0 0 1 0 1 0 0 0 0 1 0 -0.2873479 0.9578264 0 -0.3791635 0.9253297 0 -0.3791637 0.9253297 0 0 -1 0 -0.2873479 0.9578264 0 -0.287348 0.9578263 0 -0.2873471 0.9578266 0 -0.3011118 0.953589 0 -0.3011118 0.9535889 1 -8.03467e-7 0</float_array>
          <technique_common>
            <accessor source="#world-mesh-normals-array" count="15" stride="3">
              <param name="X" type="float"/>
              <param name="Y" type="float"/>
              <param name="Z" type="float"/>
            </accessor>
          </technique_common>
        </source>
        <vertices id="world-mesh-vertices">
          <input semantic="POSITION" source="#world-mesh-positions"/>
        </vertices>
        <triangles count="216">
          <input semantic="VERTEX" source="#world-mesh-vertices" offset="0"/>
          <input semantic="NORMAL" source="#world-mesh-normals" offset="1"/>
          <p>0 0 1 0 2 0 2 0 1 0 3 0 3 0 1 0 4 0 4 0 1 0 5 0 4 0 5 0 6 0 6 0 5 0 7 0 8 1 9 1 10 1 10 1 9 1 3 1 3 1 9 1 2 1 2 1 9 1 11 1 12 2 13 2 6 2 6 2 13 2 4 2 4 2 13 2 14 2 4 2 14 2 15 2 15 2 14 2 16 2 16 2 14 2 17 2 18 2 19 2 20 2 20 2 19 2 21 2 8 3 10 3 22 3 22 3 10 3 23 3 22 3 23 3 24 3 10 3 25 3 23 3 23 3 25 3 26 3 23 3 26 3 27 3 28 2 26 2 29 2 29 2 26 2 25 2 30 0 28 0 19 0 19 0 28 0 29 0 19 0 29 0 21 0 31 3 18 3 16 3 16 3 18 3 15 3 15 3 18 3 20 3 3 4 32 4 10 4 10 4 32 4 33 4 10 4 33 4 25 4 25 4 33 4 29 4 29 4 33 4 34 4 29 4 34 4 15 4 15 4 34 4 4 4 4 4 34 4 3 4 3 4 34 4 35 4 3 4 35 4 32 4 20 4 21 4 15 4 15 4 21 4 29 4 36 4 27 4 37 4 37 4 27 4 26 4 37 4 26 4 38 4 38 4 26 4 28 4 38 4 28 4 39 4 39 4 28 4 40 4 40 4 28 4 41 4 40 4 41 4 42 4 42 4 41 4 43 4 28 4 30 4 41 4 41 4 30 4 44 4 45 4 46 4 42 4 42 4 46 4 47 4 42 4 47 4 40 4 47 4 46 4 38 4 38 4 46 4 37 4 48 4 49 4 16 4 16 4 49 4 50 4 16 4 50 4 51 4 51 4 50 4 52 4 51 4 52 4 53 4 53 4 52 4 54 4 53 4 54 4 55 4 55 4 54 4 56 4 55 4 56 4 0 4 52 4 48 4 54 4 54 4 48 4 17 4 17 4 48 4 16 4 0 4 2 4 55 4 55 4 2 4 11 4 55 4 57 4 53 4 58 4 31 4 51 4 51 4 31 4 16 4 54 4 59 4 56 4 56 4 59 4 60 4 60 4 59 4 12 4 60 4 12 4 6 4 6 4 7 4 60 4 19 1 61 1 30 1 30 1 61 1 44 1 62 0 63 0 32 0 32 0 63 0 33 0 63 1 64 1 33 1 33 1 64 1 34 1 64 3 65 3 34 3 34 3 65 3 35 3 65 2 62 2 35 2 35 2 62 2 32 2 51 0 66 0 58 0 58 0 66 0 67 0 67 4 9 4 18 4 18 4 9 4 68 4 18 4 68 4 19 4 19 4 68 4 61 4 61 4 68 4 69 4 69 4 68 4 70 4 69 4 70 4 22 4 22 4 70 4 71 4 22 4 71 4 72 4 66 4 73 4 67 4 67 4 73 4 74 4 67 4 74 4 9 4 9 4 74 4 75 4 68 4 9 4 76 4 76 4 9 4 8 4 76 4 8 4 77 4 77 4 8 4 72 4 77 4 72 4 78 4 8 4 22 4 72 4 77 4 78 4 79 4 79 4 78 4 70 4 79 4 70 4 68 4 66 5 51 5 73 5 73 5 51 5 53 5 74 3 73 3 57 3 57 3 73 3 53 3 80 1 81 1 42 1 42 1 81 1 45 1 31 1 58 1 18 1 18 1 58 1 67 1 61 3 41 3 44 3 82 1 83 1 46 1 46 1 83 1 37 1 55 3 11 3 75 3 75 3 11 3 9 3 80 6 84 6 81 6 81 7 84 7 85 7 86 3 84 3 43 3 43 3 84 3 80 3 43 3 80 3 42 3 86 3 87 3 84 3 74 5 57 5 75 5 75 5 57 5 55 5 62 8 65 8 63 8 63 8 65 8 64 8 40 2 47 2 88 2 88 2 47 2 89 2 39 3 40 3 90 3 90 3 40 3 88 3 38 1 39 1 91 1 91 1 39 1 90 1 47 0 38 0 89 0 89 0 38 0 91 0 91 4 90 4 89 4 89 4 90 4 88 4 92 0 86 0 69 0 43 9 41 9 86 9 86 10 41 10 61 10 86 11 61 11 69 11 69 1 22 1 92 1 92 1 22 1 24 1 93 3 94 3 78 3 78 3 94 3 70 3 95 2 93 2 72 2 72 2 93 2 78 2 96 0 95 0 71 0 71 0 95 0 72 0 94 1 96 1 70 1 70 1 96 1 71 1 96 4 94 4 95 4 95 4 94 4 93 4 97 3 98 3 76 3 76 3 98 3 68 3 99 2 97 2 77 2 77 2 97 2 76 2 100 0 99 0 79 0 79 0 99 0 77 0 98 1 100 1 68 1 68 1 100 1 79 1 100 4 98 4 99 4 99 4 98 4 97 4 92 4 24 4 86 4 86 4 24 4 23 4 86 4 23 4 87 4 37 0 83 0 36 0 36 0 83 0 101 0 82 12 85 12 83 12 83 13 85 13 101 13 85 14 82 14 81 14 81 3 82 3 45 3 45 3 82 3 46 3 85 1 87 1 101 1 101 1 87 1 23 1 101 1 23 1 27 1 85 1 84 1 87 1 27 1 36 1 101 1 60 1 7 1 102 1 102 1 7 1 5 1 56 0 60 0 103 0 103 0 60 0 102 0 0 2 56 2 1 2 1 2 56 2 103 2 1 4 103 4 5 4 5 4 103 4 102 4 50 0 49 0 104 0 104 0 49 0 105 0 52 2 50 2 106 2 106 2 50 2 104 2 48 3 52 3 107 3 107 3 52 3 106 3 49 1 48 1 105 1 105 1 48 1 107 1 105 4 107 4 104 4 104 4 107 4 106 4 12 3 59 3 13 3 13 3 59 3 108 3 54 0 17 0 109 0 109 0 17 0 14 0 59 2 54 2 108 2 108 2 54 2 109 2 108 4 109 4 13 4 13 4 109 4 14 4</p>
        </triangles>
      </mesh>
    </geometry>
  </library_geometries>
  <library_visual_scenes>
    <visual_scene id="Scene" name="Scene">
      <node id="world" name="world" type="NODE">
        <matrix sid="transform">1 0 0 0 0 1 0 0 0 0 1 0 0 0 0 1</matrix>
        <instance_geometry url="#world-mesh" name="world"/>
      </node>
      <node id="Camera" name="Camera" type="NODE">
        <matrix sid="transform">0.6859207 -0.3240135 0.6515582 7.358891 0.7276763 0.3054208 -0.6141704 -6.925791 0 0.8953956 0.4452714 4.958309 0 0 0 1</matrix>
        <instance_camera url="#Camera-camera"/>
      </node>
      <node id="Light" name="Light" type="NODE">
        <matrix sid="transform">-0.2908646 -0.7711008 0.5663932 4.076245 0.9551712 -0.1998834 0.2183912 1.005454 -0.05518906 0.6045247 0.7946723 5.903862 0 0 0 1</matrix>
        <instance_light url="#Light-light"/>
      </node>
    </visual_scene>
  </library_visual_scenes>
  <scene>
    <instance_visual_scene url="#Scene"/>
  </scene>
</COLLADA>